<?xml version="1.0" encoding="UTF-8"?><svg xmlns="http://www.w3.org/2000/svg" xmlns:xlink="http://www.w3.org/1999/xlink" height="215.2" preserveAspectRatio="xMidYMid meet" version="1.1" viewBox="84.8 95.0 255.5 215.2" width="255.5" zoomAndPan="magnify">
 <g id="surface1">
  <g id="change1_1"><path d="m333.05 162.71h-240.9c-4.037 0-7.31 3.27-7.31 7.31v132.87c0 4.04 3.273 7.31 7.308 7.31h240.9c4.04 0 7.31-3.27 7.31-7.31v-132.87c0-4.04-3.27-7.31-7.31-7.31" fill="black"/></g>
  <g id="change2_1"><path d="m93.148 302.32h239.56l-0.58-118.46h-238.61l-0.372 118.46" fill="#496592"/></g>
  <g id="change3_1"><path d="m212.82 301.74c-32.94-32.95-86.36-32.95-119.3 0v-139.04c32.94-32.94 86.36-32.94 119.3 0v139.04" fill="#98b7e4"/></g>
  <g id="change4_1"><path d="m212.82 301.74c0-35.7-66.62-67.7-99.57-34.76v-139.03c32.95-32.946 95.82 3.75 99.57 34.75v139.04" fill="#b9d8f2"/></g>
  <g id="change3_2"><path d="m332.13 301.74c-32.95-32.95-86.36-32.95-119.31 0v-139.04c32.95-32.94 86.36-32.94 119.31 0v139.04" fill="#98b7e4"/></g>
  <path d="m2304.5 2559.1s422.7 244.3 864.3-18.8" fill="none" stroke="#496592" stroke-linecap="round" stroke-linejoin="round" stroke-miterlimit="10" stroke-width="50" transform="matrix(.1 0 0 -.1 0 425.2)"/>
  <path d="m2304.5 2371.2s422.7 244.3 864.3-18.8" fill="none" stroke="#496592" stroke-linecap="round" stroke-linejoin="round" stroke-miterlimit="10" stroke-width="50" transform="matrix(.1 0 0 -.1 0 425.2)"/>
  <path d="m2304.5 2183.4s422.7 244.2 864.3-18.8" fill="none" stroke="#496592" stroke-linecap="round" stroke-linejoin="round" stroke-miterlimit="10" stroke-width="50" transform="matrix(.1 0 0 -.1 0 425.2)"/>
  <path d="m2304.5 1995.5s422.7 244.2 864.3-18.8" fill="none" stroke="#496592" stroke-linecap="round" stroke-linejoin="round" stroke-miterlimit="10" stroke-width="50" transform="matrix(.1 0 0 -.1 0 425.2)"/>
  <path d="m2304.5 1807.6s422.7 244.2 864.3-18.8" fill="none" stroke="#496592" stroke-linecap="round" stroke-linejoin="round" stroke-miterlimit="10" stroke-width="50" transform="matrix(.1 0 0 -.1 0 425.2)"/>
  <path d="m2304.5 1619.7s422.7 244.3 864.3-18.8" fill="none" stroke="#496592" stroke-linecap="round" stroke-linejoin="round" stroke-miterlimit="10" stroke-width="50" transform="matrix(.1 0 0 -.1 0 425.2)"/>
 </g>
</svg>