<svg height="503pt" viewBox="-88 0 503 503.84" width="503pt" xmlns="http://www.w3.org/2000/svg"><path d="m16.421875 16h295.949219v455.984375h-295.949219zm0 0" fill="#844747"/><path d="m252.203125 56c2.199219 0 4 1.800781 4 4v55.921875c0 2.199219-1.800781 4-4 4h-23.847656c-2.199219 0-4-1.800781-4-4v-55.921875c0-2.199219 1.800781-4 4-4zm0 0" fill="#ffce54"/><path d="m212.355469 31.96875c2.199219 0 4 1.800781 4 4v79.953125c0 2.199219-1.800781 4-4 4h-15.839844c-2.199219 0-4-1.800781-4-4v-79.953125c0-2.199219 1.800781-4 4-4zm0 0" fill="#5d9cec"/><path d="m284.277344 40c2.199218 0 4 1.800781 4 4v71.921875c0 2.199219-1.800782 4-4 4h-15.839844c-2.203125 0-4-1.800781-4-4v-71.921875c0-2.199219 1.796875-4 4-4zm0 0" fill="#4fc1e9"/><path d="m180.277344 48c2.199218 0 4 1.800781 4 4v63.921875c0 2.199219-1.800782 4-4 4h-39.847656c-2.203126 0-4-1.800781-4-4v-63.921875c0-2.199219 1.796874-4 4-4zm0 0" fill="#a0d468"/><path d="m128.421875 115.921875c0 2.199219-1.800781 4-4 4h-80.019531c-2.199219 0-4-1.800781-4-4v-7.921875c0-2.199219 1.800781-4 4-4h80.019531c2.199219 0 4 1.800781 4 4zm0 0" fill="#ed5565"/><path d="m128.421875 83.921875c0 2.199219-1.800781 4-4 4h-80.019531c-2.199219 0-4-1.800781-4-4v-7.921875c0-2.199219 1.800781-4 4-4h80.019531c2.199219 0 4 1.800781 4 4zm0 0" fill="#ed5565"/><path d="m128.421875 99.96875c0 2.199219-1.800781 4-4 4h-80.019531c-2.199219 0-4-1.800781-4-4v-7.921875c0-2.199219 1.800781-4 4-4h80.019531c2.199219 0 4 1.800781 4 4zm0 0" fill="#da4453"/><path d="m196.1875 160.121094c2.199219 0 4 1.800781 4 4v71.933594c0 2.203124-1.800781 4-4 4h-15.839844c-2.199218 0-4-1.796876-4-4v-71.933594c0-2.199219 1.800782-4 4-4zm0 0" fill="#ffce54"/><path d="m60.242188 160.121094c2.203124 0 4 1.800781 4 4v71.933594c0 2.203124-1.796876 4-4 4h-15.839844c-2.199219 0-4-1.796876-4-4v-71.933594c0-2.199219 1.800781-4 4-4zm0 0" fill="#5d9cec"/><path d="m164.371094 184.136719c2.199218 0 4 1.800781 4 4v47.917969c0 2.203124-1.800782 4-4 4h-31.855469c-2.199219 0-4-1.796876-4-4v-47.917969c0-2.199219 1.800781-4 4-4zm0 0" fill="#4fc1e9"/><path d="m116.484375 168.105469c2.199219 0 4 1.796875 4 4v63.917969c0 2.199218-1.800781 4-4 4h-39.847656c-2.199219 0-4-1.800782-4-4v-63.917969c0-2.203125 1.800781-4 4-4zm0 0" fill="#a0d468"/><path d="m177.476562 280.246094c2.199219 0 4 1.800781 4 4v71.9375c0 2.199218-1.800781 4-4 4h-15.839843c-2.199219 0-4-1.800782-4-4v-71.9375c0-2.199219 1.800781-4 4-4zm0 0" fill="#4fc1e9"/><path d="m68.253906 400.046875c2.199219 0 4 1.800781 4 4v63.921875c0 2.199219-1.800781 4-4 4h-23.851562c-2.199219 0-4-1.800781-4-4v-63.921875c0-2.199219 1.800781-4 4-4zm0 0" fill="#4fc1e9"/><path d="m60.242188 312.28125c2.203124 0 4 1.796875 4 4v39.902344c0 2.199218-1.796876 4-4 4h-15.839844c-2.199219 0-4-1.800782-4-4v-39.902344c0-2.203125 1.800781-4 4-4zm0 0" fill="#ffce54"/><path d="m145.660156 296.265625c2.199219 0 4 1.796875 4 4v55.917969c0 2.199218-1.800781 4-4 4h-23.847656c-2.199219 0-4-1.800782-4-4v-55.917969c0-2.203125 1.800781-4 4-4zm0 0" fill="#a0d468"/><path d="m100.109375 408.015625c2.199219 0 4 1.800781 4 4v55.921875c0 2.199219-1.800781 4-4 4h-15.839844c-2.203125 0-4-1.800781-4-4v-55.921875c0-2.199219 1.796875-4 4-4zm0 0" fill="#a0d468"/><path d="m132.140625 408.015625c2.199219 0 4 1.800781 4 4v55.921875c0 2.199219-1.800781 4-4 4h-15.839844c-2.199219 0-4-1.800781-4-4v-55.921875c0-2.199219 1.800781-4 4-4zm0 0" fill="#5d9cec"/><path d="m105.78125 272.214844c2.199219 0 4 1.800781 4 4v79.9375c0 2.199218-1.800781 4-4 4h-29.152344c-2.199218 0-4-1.800782-4-4v-79.9375c0-2.199219 1.800782-4 4-4zm0 0" fill="#ed5565"/><path d="m180.210938 400.0625c2.199218 0 4 1.800781 4 4v63.921875c0 2.199219-1.800782 4-4 4h-29.152344c-2.199219 0-4-1.800781-4-4v-63.921875c0-2.199219 1.800781-4 4-4zm0 0" fill="#ed5565"/><path d="m280.90625 272.214844c2.203125 0 4 1.800781 4 4v79.9375c0 2.199218-1.796875 4-4 4h-21.140625c-2.203125 0-4-1.800782-4-4v-79.9375c0-2.199219 1.796875-4 4-4zm0 0" fill="#ffce54"/><path d="m214.621094 296.246094c2.199218 0 4 1.800781 4 4v55.90625c0 2.199218-1.800782 4-4 4h-21.144532c-2.199218 0-4-1.800782-4-4v-55.90625c0-2.199219 1.800782-4 4-4zm0 0" fill="#5d9cec"/><path d="m243.765625 296.246094c2.199219 0 4 1.800781 4 4v55.90625c0 2.199218-1.800781 4-4 4h-13.136719c-2.199218 0-4-1.800782-4-4v-55.90625c0-2.199219 1.800782-4 4-4zm0 0" fill="#4a89dc"/><path d="m48.394531 480c4.402344 0 8 3.609375 8 8v7.839844c0 4.40625-3.597656 8-8 8h-24c-4.398437 0-8-3.59375-8-8v-7.839844c0-4.390625 3.601563-8 8-8h.242188 16zm0 0" fill="#844747"/><path d="m304.394531 480c4.402344 0 8 3.609375 8 8v7.839844c0 4.40625-3.597656 8-8 8h-24c-4.398437 0-8-3.59375-8-8v-7.839844c0-4.390625 3.601563-8 8-8h8zm0 0" fill="#844747"/><g fill="#965353"><path d="m320.371094 487.984375h-311.949219c-4.425781 0-8-3.578125-8-8v-471.984375c0-4.425781 3.574219-8 8-8h311.949219c4.425781 0 8 3.574219 8 8v471.984375c0 4.421875-3.574219 8-8 8zm-303.949219-16h295.949219v-455.984375h-295.949219zm0 0"/><path d="m320.371094 135.921875h-311.949219c-4.425781 0-8-3.578125-8-8 0-4.425781 3.574219-8 8-8h311.949219c4.425781 0 8 3.574219 8 8 0 4.421875-3.574219 8-8 8zm0 0"/><path d="m320.371094 256.0625h-311.949219c-4.425781 0-8-3.574219-8-8 0-4.421875 3.574219-8 8-8h311.949219c4.425781 0 8 3.578125 8 8 0 4.425781-3.574219 8-8 8zm0 0"/><path d="m320.371094 376.199219h-311.949219c-4.425781 0-8-3.574219-8-8 0-4.421875 3.574219-8 8-8h311.949219c4.425781 0 8 3.578125 8 8 0 4.425781-3.574219 8-8 8zm0 0"/></g><path d="m288.445312 236.03125c0 2.199219-1.800781 4-4 4h-72.007812c-2.203125 0-4-1.800781-4-4v-7.917969c0-2.203125 1.796875-4 4-4h72.007812c2.199219 0 4 1.796875 4 4zm0 0" fill="#a0d468"/><path d="m288.445312 204.03125c0 2.199219-1.800781 4-4 4h-72.007812c-2.203125 0-4-1.800781-4-4v-7.917969c0-2.203125 1.796875-4 4-4h72.007812c2.199219 0 4 1.796875 4 4zm0 0" fill="#a0d468"/><path d="m288.445312 220.078125c0 2.203125-1.800781 4-4 4h-72.007812c-2.203125 0-4-1.796875-4-4v-7.917969c0-2.199218 1.796875-4 4-4h72.007812c2.199219 0 4 1.800782 4 4zm0 0" fill="#8cc152"/><path d="m288.445312 188.089844c0 2.199218-1.800781 4-4 4h-72.007812c-2.203125 0-4-1.800782-4-4v-7.90625c0-2.199219 1.796875-4 4-4h72.007812c2.199219 0 4 1.800781 4 4zm0 0" fill="#8cc152"/><path d="m288.445312 467.839844c0 2.199218-1.800781 4-4 4h-88.023437c-2.203125 0-4-1.800782-4-4v-7.902344c0-2.203125 1.796875-4 4-4h88.023437c2.199219 0 4 1.796875 4 4zm0 0" fill="#ffce54"/><path d="m288.445312 435.839844c0 2.199218-1.800781 4-4 4h-88.023437c-2.203125 0-4-1.800782-4-4v-7.902344c0-2.203125 1.796875-4 4-4h88.023437c2.199219 0 4 1.796875 4 4zm0 0" fill="#ffce54"/><path d="m288.445312 451.886719c0 2.203125-1.800781 4-4 4h-88.023437c-2.203125 0-4-1.796875-4-4v-7.902344c0-2.199219 1.796875-4 4-4h88.023437c2.199219 0 4 1.800781 4 4zm0 0" fill="#f6bb42"/></svg>