<?xml version="1.0" encoding="iso-8859-1"?>
<!-- Generator: Adobe Illustrator 19.0.0, SVG Export Plug-In . SVG Version: 6.00 Build 0)  -->
<svg version="1.1" id="Layer_1" xmlns="http://www.w3.org/2000/svg" xmlns:xlink="http://www.w3.org/1999/xlink" x="0px" y="0px"
	 viewBox="0 0 511.882 511.882" style="enable-background:new 0 0 511.882 511.882;" xml:space="preserve">
<path style="fill:#CCD1D9;" d="M437.24,501.212c0,5.89-4.781,10.67-10.686,10.67H85.312c-5.889,0-10.669-4.78-10.669-10.67V31.992
	c0-5.89,4.78-10.669,10.669-10.669h341.242c5.904,0,10.686,4.779,10.686,10.669V501.212z"/>
<path style="fill:#E6E9ED;" d="M437.24,479.889c0,5.89-4.781,10.654-10.686,10.654H85.312c-5.889,0-10.669-4.765-10.669-10.654
	V10.653C74.643,4.763,79.423,0,85.312,0h341.242c5.904,0,10.686,4.764,10.686,10.653V479.889z"/>
<g>
	<path style="fill:#CCD1D9;" d="M191.959,415.904c0,17.668-14.325,31.993-31.993,31.993s-31.993-14.325-31.993-31.993
		c0-17.684,14.325-31.992,31.993-31.992C177.633,383.912,191.959,398.22,191.959,415.904z"/>
	<path style="fill:#CCD1D9;" d="M287.928,415.904c0,17.668-14.309,31.993-31.984,31.993c-17.668,0-31.993-14.325-31.993-31.993
		c0-17.684,14.325-31.992,31.993-31.992C273.62,383.912,287.928,398.22,287.928,415.904z"/>
	<path style="fill:#CCD1D9;" d="M383.908,415.904c0,17.668-14.309,31.993-31.992,31.993c-17.652,0-31.992-14.325-31.992-31.993
		c0-17.684,14.34-31.992,31.992-31.992C369.598,383.912,383.908,398.22,383.908,415.904z"/>
	<path style="fill:#CCD1D9;" d="M191.959,319.926c0,17.667-14.325,31.992-31.993,31.992s-31.993-14.325-31.993-31.992
		c0-17.684,14.325-31.993,31.993-31.993C177.633,287.933,191.959,302.243,191.959,319.926z"/>
	<path style="fill:#CCD1D9;" d="M287.928,319.926c0,17.667-14.309,31.992-31.984,31.992c-17.668,0-31.993-14.325-31.993-31.992
		c0-17.684,14.325-31.993,31.993-31.993C273.62,287.933,287.928,302.243,287.928,319.926z"/>
	<path style="fill:#CCD1D9;" d="M383.908,319.926c0,17.667-14.309,31.992-31.992,31.992c-17.652,0-31.992-14.325-31.992-31.992
		c0-17.684,14.34-31.993,31.992-31.993C369.598,287.933,383.908,302.243,383.908,319.926z"/>
	<path style="fill:#CCD1D9;" d="M191.959,223.948c0,17.668-14.325,31.993-31.993,31.993s-31.993-14.325-31.993-31.993
		c0-17.684,14.325-31.992,31.993-31.992C177.633,191.956,191.959,206.264,191.959,223.948z"/>
	<path style="fill:#CCD1D9;" d="M287.928,223.948c0,17.668-14.309,31.993-31.984,31.993c-17.668,0-31.993-14.325-31.993-31.993
		c0-17.684,14.325-31.992,31.993-31.992C273.62,191.956,287.928,206.264,287.928,223.948z"/>
	<path style="fill:#CCD1D9;" d="M383.908,223.948c0,17.668-14.309,31.993-31.992,31.993c-17.652,0-31.992-14.325-31.992-31.993
		c0-17.684,14.34-31.992,31.992-31.992C369.598,191.956,383.908,206.264,383.908,223.948z"/>
</g>
<g>
	<circle style="fill:#F5F7FA;" cx="159.97" cy="405.231" r="31.993"/>
	<path style="fill:#F5F7FA;" d="M287.928,405.235c0,17.667-14.309,31.992-31.984,31.992c-17.668,0-31.993-14.325-31.993-31.992
		c0-17.668,14.325-31.993,31.993-31.993C273.62,373.242,287.928,387.567,287.928,405.235z"/>
	<path style="fill:#F5F7FA;" d="M383.908,405.235c0,17.667-14.309,31.992-31.992,31.992c-17.652,0-31.992-14.325-31.992-31.992
		c0-17.668,14.34-31.993,31.992-31.993C369.598,373.242,383.908,387.567,383.908,405.235z"/>
	<circle style="fill:#F5F7FA;" cx="159.97" cy="309.251" r="31.993"/>
	<path style="fill:#F5F7FA;" d="M287.928,309.256c0,17.668-14.309,31.992-31.984,31.992c-17.668,0-31.993-14.324-31.993-31.992
		s14.325-31.992,31.993-31.992C273.62,277.264,287.928,291.588,287.928,309.256z"/>
	<path style="fill:#F5F7FA;" d="M383.908,309.256c0,17.668-14.309,31.992-31.992,31.992c-17.652,0-31.992-14.324-31.992-31.992
		s14.34-31.992,31.992-31.992C369.598,277.264,383.908,291.588,383.908,309.256z"/>
	<circle style="fill:#F5F7FA;" cx="159.97" cy="213.281" r="31.993"/>
	<path style="fill:#F5F7FA;" d="M287.928,213.279c0,17.667-14.309,31.992-31.984,31.992c-17.668,0-31.993-14.325-31.993-31.992
		c0-17.668,14.325-31.993,31.993-31.993C273.62,181.286,287.928,195.611,287.928,213.279z"/>
	<path style="fill:#F5F7FA;" d="M383.908,213.279c0,17.667-14.309,31.992-31.992,31.992c-17.652,0-31.992-14.325-31.992-31.992
		c0-17.668,14.34-31.993,31.992-31.993C369.598,181.286,383.908,195.611,383.908,213.279z"/>
</g>
<path style="fill:#8CC153;" d="M341.26,53.315H170.62c-23.557,0-42.646,19.09-42.646,42.662c0,23.558,19.089,42.646,42.646,42.646
	h170.64c23.557,0,42.646-19.089,42.646-42.646C383.908,72.405,364.818,53.315,341.26,53.315z"/>
<path style="fill:#A0D468;" d="M341.26,63.985H170.62c-21.745,0-39.679,16.277-42.303,37.319
	c2.624,21.042,20.558,37.319,42.303,37.319h170.64c21.746,0,39.678-16.277,42.303-37.319
	C380.938,80.262,363.007,63.985,341.26,63.985z"/>
<g>
</g>
<g>
</g>
<g>
</g>
<g>
</g>
<g>
</g>
<g>
</g>
<g>
</g>
<g>
</g>
<g>
</g>
<g>
</g>
<g>
</g>
<g>
</g>
<g>
</g>
<g>
</g>
<g>
</g>
</svg>
