<svg height="488pt" viewBox="-12 0 488 488" width="488pt" xmlns="http://www.w3.org/2000/svg"><path d="m359.839844 296.167969v56l-104-104h56zm0 0" fill="#da4453"/><path d="m359.839844 144.167969v56l-48 48h-56zm0 0" fill="#d3374e"/><path d="m463.839844 248.167969h-56l-48-48v-56zm0 0" fill="#da4453"/><path d="m463.839844 248.167969-104 104v-56l48-48zm0 0" fill="#d3374e"/><path d="m311.839844 248.164062 48-48 47.996094 48-47.996094 47.996094zm0 0" fill="#ed5565"/><path d="m232.078125 368v71.921875h-.078125l-16 16.078125h-24l-16-16v-72.078125l16-16h24zm0 0" fill="#ac92ec"/><path d="m176 320 16 31.921875-16 16-32-15.921875zm0 0" fill="#967adc"/><path d="m176 367.921875v72.078125l-32 16v-104zm0 0" fill="#826acc"/><path d="m176 440 16 16-16.960938 31.039062-31.039062-31.039062zm0 0" fill="#967adc"/><path d="m216 456 16 32h-56l-.960938-.960938 16.960938-31.039062zm0 0" fill="#826acc"/><path d="m232.078125 440 31.921875 16-32 32-16-32 16-16.078125h.078125zm0 0" fill="#967adc"/><path d="m264 352v104l-31.921875-16v-72l-.078125-.078125zm0 0" fill="#826acc"/><path d="m264 352-32 15.921875-16-16 16-31.921875zm0 0" fill="#967adc"/><path d="m232 320-16 31.921875h-24l-16-31.921875zm0 0" fill="#826acc"/><path d="m152.078125 48.078125 48 143.921875v.078125h-.078125l-143.921875-144zm0 0" fill="#3bafda"/><path d="m104.078125.078125 47.921875 48h-95.921875zm0 0" fill="#77dcf7"/><path d="m200.078125.078125-48 48h-.078125l-47.921875-48v-.078125h95.921875zm0 0" fill="#4fc1e9"/><path d="m296.078125.078125-48 48h-.078125l-47.921875-48v-.078125h95.921875zm0 0" fill="#4fc1e9"/><path d="m200.078125.078125 47.921875 48h-95.921875zm0 0" fill="#77dcf7"/><path d="m344.078125 48.078125h-96l48-48zm0 0" fill="#77dcf7"/><path d="m344.078125 48.078125-144 143.921875 48-143.921875zm0 0" fill="#3bafda"/><path d="m248 48.078125h.078125l-48 143.921875-48-143.921875zm0 0" fill="#4fc1e9"/><path d="m96.078125 232.078125v40l-32.078125 24-32-24v-40l32-24zm0 0" fill="#87bcf4"/><path d="m32 232.078125v40l-32 16.089844v-72.089844zm0 0" fill="#5d9cec"/><path d="m64 160.078125v48l-32 24-32-16zm0 0" fill="#4a89dc"/><path d="m128 216.078125-31.921875 16-32.078125-24v-48zm0 0" fill="#5d9cec"/><path d="m128 216.078125.078125 72.089844-32-16.089844v-40zm0 0" fill="#4a89dc"/><path d="m128.078125 288.167969-64.078125 55.910156v-48l32.078125-24zm0 0" fill="#5d9cec"/><path d="m64 296.078125v48l-64-55.910156 32-16.089844zm0 0" fill="#4a89dc"/></svg>