<svg height="504pt" viewBox="0 -4 504.016 504" width="504pt" xmlns="http://www.w3.org/2000/svg"><path d="m456.015625 320.007812c-26.480469 0-48-21.519531-48-48v-144c0-26.558593 21.519531-48 48-48s48 21.441407 48 48v144c0 26.480469-21.519531 48-48 48zm0 0" fill="#ed5565"/><path d="m376.015625 464.089844h64c0 17.679687-14.320313 32-32 32s-32-14.320313-32-32zm0 0" fill="#ccd1d9"/><path d="m408.015625 496.089844h-304.023437c-17.679688 0-39.992188-14.320313-39.992188-32v-432.082032h248.007812c0-17.679687 14.320313-31.9999995 32-31.9999995 17.679688 0 32 14.3203125 32 31.9999995l.007813 432.082032c0 17.679687 14.320313 32 32 32zm-80.015625-335.921875v-24h-208v24zm0 0" fill="#e6e9ed"/><path d="m32 .0078125h312.007812c-17.679687 0-32 14.3203125-32 31.9999995h-312.007812c0-17.679687 14.320312-31.9999995 32-31.9999995zm0 0" fill="#f5f7fa"/><path d="m327.96875 136.183594h-207.953125c-4.421875 0-8 3.578125-8 8v15.992187c0 4.425781 3.578125 8 8 8h207.953125c4.421875 0 8-3.574219 8-8v-15.992187c0-4.421875-3.578125-8-8-8zm0 0" fill="#656d78"/><g fill="#ccd1d9"><path d="m328 288.167969h-208c-4.425781 0-8-3.574219-8-8s3.574219-8 8-8h208c4.425781 0 8 3.574219 8 8s-3.574219 8-8 8zm0 0"/><path d="m328 256.070312h-208c-4.425781 0-8-3.574218-8-8 0-4.421874 3.574219-8 8-8h208c4.425781 0 8 3.578126 8 8 0 4.425782-3.574219 8-8 8zm0 0"/><path d="m328 320.152344h-208c-4.425781 0-8-3.578125-8-8 0-4.425782 3.574219-8 8-8h208c4.425781 0 8 3.574218 8 8 0 4.421875-3.574219 8-8 8zm0 0"/><path d="m328 424.046875h-48.015625c-4.425781 0-8-3.574219-8-8 0-4.421875 3.574219-8 8-8h48.015625c4.425781 0 8 3.578125 8 8 0 4.425781-3.574219 8-8 8zm0 0"/><path d="m215.902344 352.152344h-95.917969c-4.425781 0-8-3.578125-8-8 0-4.425782 3.574219-8 8-8h95.917969c4.425781 0 8 3.574218 8 8 0 4.421875-3.574219 8-8 8zm0 0"/></g><path d="m484.886719 206.472656c3.128906-3.121094 3.128906-8.183594 0-11.3125-3.125-3.128906-8.183594-3.128906-11.3125 0l-9.574219 9.566406v-33.382812l20.886719-20.871094c3.128906-3.121094 3.128906-8.183594 0-11.3125-3.125-3.128906-8.183594-3.128906-11.3125 0l-9.574219 9.566406v-20.726562c0-4.425781-3.574219-8-8-8s-8 3.574219-8 8v20.71875l-10.34375-10.34375c-3.128906-3.128906-8.183594-3.128906-11.3125 0s-3.128906 8.183594 0 11.3125l21.65625 21.65625v33.375l-10.34375-10.34375c-3.128906-3.128906-8.183594-3.128906-11.3125 0s-3.128906 8.183594 0 11.3125l21.65625 21.65625v33.375l-10.34375-10.34375c-3.128906-3.128906-8.183594-3.128906-11.3125 0s-3.128906 8.183594 0 11.3125l21.65625 21.65625v124.800781c0 4.421875 3.574219 8 8 8s8-3.578125 8-8v-124.800781l20.886719-20.871094c3.128906-3.121094 3.128906-8.183594 0-11.3125-3.125-3.128906-8.183594-3.128906-11.3125 0l-9.574219 9.566406v-33.382812zm0 0" fill="#da4453"/></svg>