<svg height="495.984pt" viewBox="0 0 495.984 495.984" width="495.984pt" xmlns="http://www.w3.org/2000/svg"><path d="m219.984375 491.992188c-119.390625 0-216-96.609376-216-216v-16h16v16c0 110.542968 89.457031 200 200 200h16v16zm0 0" fill="#ffd2a6"/><g fill="#f7c292"><path d="m12.40625 335.761719 15.464844-4.144531c-.742188-2.5625-1.445313-5.136719-2.078125-7.738282l-15.472657 4.144532c.640626 2.601562 1.351563 5.167968 2.085938 7.738281zm0 0"/><path d="m48.761719 379.464844c-1.378907-2.28125-2.699219-4.59375-3.984375-6.929688l-13.855469 8c1.292969 2.328125 2.605469 4.648438 3.980469 6.929688zm0 0"/><path d="m70.113281 431.519531 11.320313-11.3125c-1.921875-1.839843-3.808594-3.726562-5.65625-5.65625l-11.320313 11.3125c1.847657 1.929688 3.726563 3.808594 5.65625 5.65625zm0 0"/><path d="m123.457031 451.199219c-2.335937-1.289063-4.65625-2.597657-6.929687-3.984375l-8.007813 13.855468c2.28125 1.378907 4.601563 2.691407 6.929688 3.984376zm0 0"/><path d="m172.105469 470.191406c-2.59375-.640625-5.167969-1.34375-7.722657-2.078125l-4.152343 15.453125c2.554687.738282 5.121093 1.449219 7.714843 2.089844zm0 0"/></g><path d="m275.265625 491.992188c119.390625 0 216-96.609376 216-216v-16h-16v16c0 110.542968-89.457031 200-200 200h-16v16zm0 0" fill="#ffd2a6"/><path d="m482.839844 335.761719-15.464844-4.144531c.746094-2.5625 1.449219-5.136719 2.082031-7.738282l15.472657 4.144532c-.640626 2.601562-1.355469 5.167968-2.089844 7.738281zm0 0" fill="#f7c292"/><path d="m446.496094 379.464844c1.375-2.28125 2.695312-4.59375 3.984375-6.929688l13.855469 8c-1.296876 2.328125-2.609376 4.648438-3.984376 6.929688zm0 0" fill="#f7c292"/><path d="m425.144531 431.519531-11.320312-11.3125c1.917969-1.839843 3.808593-3.726562 5.65625-5.65625l11.320312 11.3125c-1.855469 1.929688-3.738281 3.808594-5.65625 5.65625zm0 0" fill="#f7c292"/><path d="m371.800781 451.199219c2.335938-1.289063 4.65625-2.597657 6.925781-3.984375l8.007813 13.855468c-2.277344 1.378907-4.597656 2.691407-6.925781 3.984376zm0 0" fill="#f7c292"/><path d="m323.152344 470.191406c2.589844-.640625 5.167968-1.34375 7.71875-2.078125l4.152344 15.453125c-2.550782.738282-5.121094 1.449219-7.710938 2.089844zm0 0" fill="#f7c292"/><path d="m276 3.992188c119.390625 0 216 96.609374 216 216v16h-16v-16c0-110.542969-89.457031-200-200-200h-16v-16zm0 0" fill="#ffd2a6"/><path d="m483.574219 160.222656-15.460938 4.144532c.742188 2.5625 1.445313 5.136718 2.078125 7.738281l15.472656-4.144531c-.640624-2.601563-1.351562-5.167969-2.089843-7.738282zm0 0" fill="#f7c292"/><path d="m447.222656 116.519531c1.378906 2.28125 2.699219 4.59375 3.984375 6.929688l13.855469-8c-1.292969-2.328125-2.605469-4.648438-3.984375-6.929688zm0 0" fill="#f7c292"/><path d="m425.871094 64.464844-11.320313 11.3125c1.921875 1.839844 3.808594 3.726562 5.65625 5.65625l11.320313-11.3125c-1.847656-1.929688-3.726563-3.808594-5.65625-5.65625zm0 0" fill="#f7c292"/><path d="m372.527344 44.785156c2.335937 1.285156 4.65625 2.597656 6.929687 3.984375l8.007813-13.859375c-2.28125-1.375-4.601563-2.6875-6.929688-3.980468zm0 0" fill="#f7c292"/><path d="m323.878906 25.792969c2.59375.640625 5.167969 1.34375 7.722656 2.078125l4.152344-15.457032c-2.554687-.734374-5.121094-1.445312-7.714844-2.085937zm0 0" fill="#f7c292"/><path d="m220.71875 3.992188c-119.390625 0-216 96.609374-216 216v16h16v-16c0-110.542969 89.457031-200 200-200h16v-16zm0 0" fill="#ffd2a6"/><path d="m13.144531 160.222656 15.464844 4.144532c-.746094 2.5625-1.449219 5.136718-2.082031 7.738281l-15.472656-4.144531c.640624-2.601563 1.351562-5.167969 2.089843-7.738282zm0 0" fill="#f7c292"/><path d="m49.496094 116.519531c-1.375 2.28125-2.695313 4.59375-3.984375 6.929688l-13.855469-8c1.296875-2.328125 2.609375-4.648438 3.984375-6.929688zm0 0" fill="#f7c292"/><path d="m70.839844 64.464844 11.320312 11.3125c-1.921875 1.839844-3.808594 3.726562-5.65625 5.65625l-11.320312-11.3125c1.855468-1.929688 3.738281-3.808594 5.65625-5.65625zm0 0" fill="#f7c292"/><path d="m124.183594 44.785156c-2.335938 1.285156-4.65625 2.597656-6.925782 3.984375l-8.011718-13.859375c2.28125-1.375 4.601562-2.6875 6.929687-3.980468zm0 0" fill="#f7c292"/><path d="m172.832031 25.792969c-2.59375.640625-5.167969 1.34375-7.71875 2.078125l-4.152343-15.457032c2.550781-.734374 5.117187-1.445312 7.710937-2.085937zm0 0" fill="#f7c292"/><path d="m248 35.992188c-117.089844 0-212 94.917968-212 212 0 117.097656 94.910156 212 212 212 117.078125 0 212-94.902344 212-212 0-117.082032-94.921875-212-212-212zm0 344c-72.863281 0-132-59.113282-132-132 0-72.886719 59.136719-132 132-132 72.855469 0 132 59.113281 132 132 0 72.886718-59.144531 132-132 132zm0 0" fill="#e6e9ed"/><path d="m247.992188 0c-11.03125 0-20 8.96875-20 20v24.9375h40v-24.9375c0-11.03125-8.96875-20-20-20zm0 0" fill="#656d78"/><path d="m227.992188 451.046875v24.9375c0 11.03125 8.96875 20 20 20s20-8.96875 20-20v-24.9375zm0 0" fill="#656d78"/><path d="m475.984375 227.992188h-24.9375v40h24.9375c11.03125 0 20-8.96875 20-20s-8.96875-20-20-20zm0 0" fill="#656d78"/><path d="m20 267.992188h24.9375v-40h-24.9375c-11.03125 0-20 8.96875-20 20s8.96875 20 20 20zm0 0" fill="#656d78"/><path d="m163.808594 44.742188 36.734375 88.671874c29.328125-12.125 63.273437-13.09375 94.898437 0l36.742188-88.6875c-56.128906-23.246093-116.359375-21.535156-168.375.015626zm0 0" fill="#da4453"/><path d="m332.183594 451.191406-36.734375-88.671875c-29.328125 12.128907-63.273438 13.097657-94.898438 0l-36.742187 88.6875c56.128906 23.257813 116.359375 21.535157 168.375-.015625zm0 0" fill="#da4453"/><path d="m44.769531 332.160156 88.679688-36.734375c-12.128907-29.328125-13.097657-63.28125 0-94.90625l-88.6875-36.726562c-23.257813 56.117187-21.546875 116.359375.007812 168.367187zm0 0" fill="#da4453"/><path d="m451.222656 163.777344-88.679687 36.734375c12.128906 29.328125 13.097656 63.28125 0 94.902343l88.6875 36.738282c23.257812-56.128906 21.546875-116.359375-.007813-168.375zm0 0" fill="#da4453"/><path d="m194.441406 118.695312 6.101563 14.71875c2.433593-1 4.929687-1.8125 7.425781-2.652343 1.160156-.394531 2.277344-.875 3.464844-1.234375 3.246094-1.015625 6.550781-1.816406 9.878906-2.558594.609375-.128906 1.183594-.328125 1.800781-.457031 8.144531-1.671875 16.480469-2.503907 24.878907-2.511719h.015624c.046876 0 .097657.015625.144532.015625 4.054687 0 8.128906.199219 12.191406.609375 1 .109375 1.96875.296875 2.96875.421875 3.023438.378906 6.046875.785156 9.0625 1.394531 1.761719.359375 3.457031.839844 5.175781 1.277344 2.21875.546875 4.449219 1.035156 6.65625 1.707031 2.191407.671875 4.320313 1.511719 6.464844 2.308594 1.59375.578125 3.191406 1.050781 4.777344 1.691406l6.101562-14.738281c-16.503906-6.855469-34.574219-10.6875-53.535156-10.6875-18.984375-.007812-37.0625 3.832031-53.574219 10.695312zm0 0" fill="#d3374e"/><path d="m129.328125 283.832031c-1.71875-5.6875-2.9375-11.574219-3.832031-17.574219-.273438-1.832031-.648438-3.625-.832032-5.472656-.078124-.753906-.070312-1.511718-.136718-2.265625-.289063-3.421875-.503906-6.832031-.511719-10.261719 0-.097656-.015625-.167968-.015625-.265624 0-.871094.121094-1.734376.136719-2.609376.0625-3.167968.167969-6.34375.488281-9.511718.160156-1.640625.464844-3.230469.6875-4.839844.328125-2.421875.625-4.832031 1.101562-7.230469.457032-2.25 1.074219-4.441406 1.632813-6.640625.457031-1.734375.824219-3.488281 1.351563-5.230468.808593-2.625 1.792968-5.1875 2.761718-7.738282.464844-1.214844.800782-2.457031 1.296875-3.65625l-14.746093-6.109375c-6.863282 16.527344-10.703126 34.605469-10.703126 53.574219s3.832032 37.046875 10.6875 53.542969l14.761719-6.109375c-.433593-1.035156-.738281-2.113282-1.136719-3.160156-1.015624-2.65625-2.039062-5.296876-2.878906-8.035157-.050781-.132812-.074218-.277343-.113281-.40625zm0 0" fill="#d3374e"/><path d="m301.566406 377.289062-6.117187-14.769531c-.234375.097657-.480469.160157-.707031.25-12.710938 5.199219-26.476563 8.230469-40.863282 8.917969-1.773437.097656-3.535156.265625-5.320312.265625-.191406 0-.375.03125-.558594.03125-1.953125 0-3.855469-.199219-5.792969-.296875-2-.09375-4-.113281-6-.296875-2.6875-.246094-5.304687-.703125-7.933593-1.125-1.378907-.21875-2.753907-.363281-4.121094-.625-3.320313-.65625-6.566406-1.503906-9.800782-2.425781-.6875-.183594-1.382812-.328125-2.078124-.527344-3.90625-1.167969-7.730469-2.527344-11.472657-4.078125-.089843-.035156-.167969-.066406-.257812-.097656l-6.128907 14.769531c16.515626 6.871094 34.601563 10.703125 53.570313 10.703125 18.992187.007813 37.070313-3.824219 53.582031-10.695313zm0 0" fill="#d3374e"/><path d="m377.289062 194.398438-14.746093 6.113281c.625 1.511719 1.089843 3.082031 1.648437 4.59375.808594 2.167969 1.664063 4.308593 2.34375 6.542969.21875.71875.359375 1.472656.5625 2.183593 1.46875 5.113281 2.566406 10.375 3.375 15.734375.28125 1.859375.65625 3.707032.847656 5.59375.113282 1.046875.105469 2.113282.175782 3.167969.246094 3.078125.464844 6.183594.480468 9.296875 0 .128906.015626.246094.015626.359375 0 1.261719-.152344 2.503906-.183594 3.75-.089844 2.738281-.152344 5.472656-.425782 8.21875-.199218 2.160156-.582031 4.261719-.902343 6.40625-.28125 1.871094-.488281 3.738281-.855469 5.609375-.570312 2.917969-1.34375 5.785156-2.121094 8.625-.296875 1.0625-.503906 2.140625-.832031 3.199219-1.078125 3.574219-2.351563 7.078125-3.742187 10.503906-.152344.375-.242188.75-.394532 1.109375l14.769532 6.113281c6.855468-16.503906 10.6875-34.558593 10.6875-53.527343s-3.832032-37.0625-10.703126-53.59375zm0 0" fill="#d3374e"/><path d="m326.070312 436.433594c-24.0625 10.015625-50.429687 15.558594-78.070312 15.558594s-54.007812-5.542969-78.070312-15.558594l-6.121094 14.78125c6.984375 2.890625 14.023437 5.394531 21.113281 7.511718.167969.066407.324219.097657.492187.144532 3.28125.984375 6.5625 1.871094 9.859376 2.6875.679687.167968 1.375.328125 2.054687.488281 2.769531.65625 5.527344 1.265625 8.296875 1.816406 1.261719.25 2.542969.472657 3.832031.6875 2.183594.394531 4.382813.785157 6.574219 1.113281 1.890625.265626 3.792969.503907 5.695312.71875 1.617188.203126 3.234376.410157 4.847657.5625 2.457031.246094 4.921875.40625 7.394531.558594 1.128906.082032 2.253906.167969 3.382812.230469 2.863282.144531 5.761719.1875 8.65625.21875.800782 0 1.585938.046875 2.382813.03125 2.855469 0 5.699219-.097656 8.53125-.199219.902344-.050781 1.832031-.050781 2.734375-.097656 2.046875-.113281 4.070312-.296875 6.105469-.472656 22.933593-1.871094 45.367187-7.277344 66.429687-16.015625zm0 0" fill="#ed5565"/><path d="m59.542969 326.039062c-10-24.0625-15.542969-50.40625-15.542969-78.046874 0-27.640626 5.550781-54 15.558594-78.082032l-14.78125-6.109375c-.394532.933594-.746094 1.886719-1.121094 2.832031-.9375 2.359376-1.871094 4.703126-2.726562 7.078126-.394532 1.097656-.746094 2.199218-1.121094 3.296874-.808594 2.359376-1.601563 4.734376-2.328125 7.097657-.425781 1.390625-.800781 2.78125-1.183594 4.167969-.578125 2.0625-1.167969 4.109374-1.6875 6.167968-.464844 1.855469-.867187 3.71875-1.289063 5.574219-.359374 1.609375-.726562 3.199219-1.046874 4.800781-.488282 2.40625-.90625 4.839844-1.304688 7.296875-.167969 1.046875-.367188 2.078125-.527344 3.125-.457031 3.050781-.832031 6.128907-1.167968 9.203125-.050782.46875-.113282.917969-.160157 1.390625-.738281 7.28125-1.121093 14.6875-1.121093 22.160157 0 10.625.800781 21.0625 2.265624 31.296874 2.613282 18.0625 7.429688 35.703126 14.34375 52.472657.054688.140625.101563.261719.160157.40625zm0 0" fill="#ed5565"/><path d="m169.9375 59.550781c24.0625-10 50.421875-15.558593 78.0625-15.558593 27.632812 0 53.984375 5.542968 78.039062 15.542968l6.128907-14.765625c-1.320313-.546875-2.65625-1.058593-3.976563-1.578125-1.878906-.734375-3.757812-1.488281-5.648437-2.167968-1.566407-.558594-3.167969-1.078126-4.765625-1.609376-1.855469-.621093-3.722656-1.261718-5.585938-1.839843-1.886718-.574219-3.816406-1.09375-5.71875-1.621094-1.519531-.425781-3.046875-.855469-4.578125-1.25-2.421875-.605469-4.863281-1.160156-7.320312-1.6875-.988281-.222656-1.980469-.464844-2.980469-.664063-3.074219-.625-6.167969-1.167968-9.28125-1.65625-.367188-.0625-.738281-.144531-1.105469-.183593-10.832031-1.664063-21.917969-2.519531-33.207031-2.519531-15.121094 0-29.886719 1.542968-44.167969 4.472656-1.097656.214844-2.167969.503906-3.257812.734375-2.34375.511719-4.679688 1.03125-6.988281 1.625-2.121094.542969-4.234376 1.167969-6.347657 1.777343-1.285156.375-2.597656.703126-3.878906 1.109376-2.039063.625-4.046875 1.328124-6.0625 2.015624-1.375.472657-2.769531.90625-4.136719 1.394532-1.617187.589844-3.207031 1.230468-4.816406 1.855468-1.511719.589844-3.03125 1.167969-4.527344 1.800782zm0 0" fill="#ed5565"/><path d="m465.785156 217.039062c-2.527344-17.65625-7.175781-34.886718-13.816406-51.34375-.257812-.625-.496094-1.28125-.761719-1.902343l-14.78125 6.128906c10.015625 24.0625 15.566407 50.4375 15.566407 78.078125s-5.542969 53.984375-15.542969 78.03125l14.78125 6.128906s.007812-.015625.007812-.03125c1.441407-3.457031 2.777344-6.9375 4.027344-10.441406.054687-.160156.109375-.328125.167969-.503906 1.167968-3.28125 2.238281-6.574219 3.238281-9.871094.167969-.558594.320313-1.144531.488281-1.703125.839844-2.855469 1.632813-5.738281 2.351563-8.59375.273437-1.144531.519531-2.28125.792969-3.421875.527343-2.296875 1.054687-4.59375 1.503906-6.890625.351562-1.78125.65625-3.574219.960937-5.375.285157-1.65625.582031-3.328125.832031-5 .367188-2.488281.671876-4.984375.957032-7.503906.113281-1 .25-2 .351562-3.015625.3125-3.160156.546875-6.34375.730469-9.542969.023437-.394531.054687-.800781.078125-1.1875.175781-3.671875.28125-7.359375.28125-11.078125 0-10.503906-.792969-20.839844-2.214844-30.960938zm0 0" fill="#ed5565"/></svg>