<svg height="504pt" viewBox="-40 0 504 504" width="504pt" xmlns="http://www.w3.org/2000/svg"><path d="m168.03125 428h-15.984375c-2.214844 0-4-1.792969-4-4s1.785156-4 4-4h15.984375c2.199219 0 4 1.792969 4 4s-1.800781 4-4 4zm0 0" fill="#aab2bd"/><path d="m152.046875 436c-2.214844 0-4-1.792969-4-4v-16c0-2.207031 1.785156-4 4-4 2.199219 0 4 1.792969 4 4v16c0 2.207031-1.800781 4-4 4zm0 0" fill="#ccd1d9"/><path d="m344.03125 288c0 4.398438-3.605469 8-8 8h-24.015625c-4.40625 0-8-3.601562-8-8v-56c0-4.398438 3.59375-8 8-8h24.015625c4.394531 0 8 3.601562 8 8zm0 0" fill="#ccd1d9"/><path d="m344.03125 232h15.984375v56.007812h-15.984375zm0 0" fill="#aab2bd"/><path d="m424 328.007812-63.984375-40v-56.007812l63.984375-40zm0 0" fill="#656d78"/><path d="m40 236.625v16h-16l-24 12v-40l24 12zm0 0" fill="#aab2bd"/><path d="m224.03125 380c0 19.882812-16.117188 36-36 36s-36-16.117188-36-36 16.117188-36 36-36 36 16.117188 36 36zm0 0" fill="#545c66"/><path d="m320.03125 368c0 4.398438-3.605469 8-8 8h-248c-4.40625 0-8-3.601562-8-8v-176c0-4.398438 3.59375-8 8-8h248c4.394531 0 8 3.601562 8 8zm0 0" fill="#656d78"/><path d="m72.03125 200h232v160h-232zm0 0" fill="#545c66"/><path d="m188.03125 392c-11.046875 0-20 8.953125-20 20v36h40v-36c0-11.046875-8.953125-20-20-20zm0 0" fill="#ccd1d9"/><path d="m87.832031 80h184.199219v104h-184.199219zm0 0" fill="#545c66"/><path d="m168.03125 80c0 44.183594-35.816406 80-80 80s-80-35.816406-80-80 35.816406-80 80-80 80 35.816406 80 80zm0 0" fill="#656d78"/><path d="m128.03125 80c0 22.089844-17.90625 40-40 40-22.089844 0-40-17.910156-40-40s17.910156-40 40-40c22.09375 0 40 17.910156 40 40zm0 0" fill="#ccd1d9"/><path d="m352.03125 80c0 44.183594-35.816406 80-80 80s-80-35.816406-80-80 35.816406-80 80-80 80 35.816406 80 80zm0 0" fill="#656d78"/><path d="m312.03125 80c0 22.089844-17.90625 40-40 40-22.089844 0-40-17.910156-40-40s17.910156-40 40-40c22.09375 0 40 17.910156 40 40zm0 0" fill="#ccd1d9"/><path d="m288.03125 80c0 8.835938-7.164062 16-16 16s-16-7.164062-16-16 7.164062-16 16-16 16 7.164062 16 16zm0 0" fill="#656d78"/><path d="m76.71875 68.6875c-6.246094 6.242188-6.246094 16.375 0 22.625l39.59375 39.589844c6.246094 6.25 16.375 6.25 22.625 0 6.246094-6.230469 6.246094-16.375 0-22.621094l-39.59375-39.59375c-6.246094-6.246094-16.390625-6.238281-22.625 0zm0 0" fill="#e6e9ed"/><path d="m192.03125 156c0 6.628906-5.371094 12-12 12-6.625 0-12-5.371094-12-12s5.375-12 12-12c6.628906 0 12 5.371094 12 12zm0 0" fill="#434a54"/><path d="m200.03125 244.625c0 6.625-5.371094 12-12 12-6.625 0-12-5.375-12-12 0-6.628906 5.375-12 12-12 6.628906 0 12 5.371094 12 12zm0 0" fill="#434a54"/><path d="m288.015625 244.625c0 6.621094-5.367187 11.992188-11.992187 11.992188-6.621094 0-11.992188-5.371094-11.992188-11.992188 0-6.625 5.371094-11.992188 11.992188-11.992188 6.625 0 11.992187 5.367188 11.992187 11.992188zm0 0" fill="#434a54"/><path d="m288.015625 316c0 6.621094-5.367187 11.992188-11.992187 11.992188-6.621094 0-11.992188-5.371094-11.992188-11.992188s5.371094-11.992188 11.992188-11.992188c6.625 0 11.992187 5.371094 11.992187 11.992188zm0 0" fill="#434a54"/><path d="m112.015625 316c0 6.621094-5.367187 11.992188-11.992187 11.992188-6.621094 0-11.992188-5.371094-11.992188-11.992188s5.371094-11.992188 11.992188-11.992188c6.625 0 11.992187 5.371094 11.992187 11.992188zm0 0" fill="#434a54"/><path d="m100.03125 232.625c6.640625 0 12 5.359375 12 12s-5.359375 12-12 12h-76v-24zm0 0" fill="#ccd1d9"/><path d="m132.03125 464h24v40h-24zm0 0" fill="#545c66"/><path d="m220.03125 464h24v40h-24zm0 0" fill="#545c66"/><path d="m176.03125 464h24v40h-24zm0 0" fill="#545c66"/><g fill="#aab2bd"><path d="m152.265625 164c-2.203125 0-4.035156-1.792969-4.035156-4s1.753906-4 3.953125-4h.082031c2.199219 0 4 1.792969 4 4s-1.792969 4-4 4zm0 0"/><path d="m188.265625 416c-2.203125 0-4.035156-1.792969-4.035156-4s1.753906-4 3.953125-4h.082031c2.199219 0 4 1.792969 4 4s-1.792969 4-4 4zm0 0"/><path d="m208.265625 164c-2.203125 0-4.035156-1.792969-4.035156-4s1.753906-4 3.953125-4h.082031c2.199219 0 4 1.792969 4 4s-1.792969 4-4 4zm0 0"/><path d="m208.265625 316c-2.203125 0-4.035156-1.792969-4.035156-4s1.753906-4 3.953125-4h.082031c2.199219 0 4 1.792969 4 4s-1.792969 4-4 4zm0 0"/><path d="m168.265625 316c-2.203125 0-4.035156-1.792969-4.035156-4s1.753906-4 3.953125-4h.082031c2.199219 0 4 1.792969 4 4s-1.792969 4-4 4zm0 0"/></g><path d="m272.265625 84c-2.203125 0-4.035156-1.792969-4.035156-4s1.753906-4 3.953125-4h.082031c2.199219 0 4 1.792969 4 4s-1.792969 4-4 4zm0 0" fill="#545c66"/><path d="m88.265625 84c-2.203125 0-4.035156-1.792969-4.035156-4s1.753906-4 3.953125-4h.082031c2.199219 0 4 1.792969 4 4s-1.792969 4-4 4zm0 0" fill="#ccd1d9"/><path d="m127.871094 123.59375c-2.214844 0-4.046875-1.792969-4.046875-4 0-2.210938 1.75-4 3.953125-4h.09375c2.199218 0 4 1.789062 4 4 0 2.207031-1.792969 4-4 4zm0 0" fill="#ccd1d9"/><path d="m248.015625 448h-119.984375c-6.605469 0-12 5.382812-12 12s5.394531 12 12 12h119.984375c6.625 0 12-5.382812 12-12s-5.375-12-12-12zm0 0" fill="#656d78"/></svg>