<svg height="496pt" viewBox="-20 0 496 496" width="496pt" xmlns="http://www.w3.org/2000/svg"><path d="m24 448h320v24h-320zm0 0" fill="#aab2bd"/><path d="m24 424h320v24h-320zm0 0" fill="#ccd1d9"/><path d="m88 60c0 6.640625-5.359375 12-12 12s-12-5.359375-12-12v-48c0-6.640625 5.359375-12 12-12s12 5.359375 12 12zm0 0" fill="#e6e9ed"/><g fill="#965353"><path d="m232 24h48v24h-48zm0 0"/><path d="m160 24h48v24h-48zm0 0"/><path d="m88 24h48v24h-48zm0 0"/><path d="m304 24v24h40v424h-320v-424h40v-24h-64v472h368v-472zm0 0"/></g><path d="m160 60c0 6.640625-5.359375 12-12 12s-12-5.359375-12-12v-48c0-6.640625 5.359375-12 12-12s12 5.359375 12 12zm0 0" fill="#e6e9ed"/><path d="m232 24v36c0 6.640625-5.359375 12-12 12s-12-5.359375-12-12v-48c0-6.640625 5.359375-12 12-12s12 5.359375 12 12zm0 0" fill="#e6e9ed"/><path d="m304 60c0 6.640625-5.441406 12-12 12-6.640625 0-12-5.359375-12-12v-48c0-6.640625 5.359375-12 12-12 6.558594 0 12 5.359375 12 12zm0 0" fill="#e6e9ed"/><path d="m344 48v376h-320v-376h40v12c0 6.640625 5.359375 12 12 12s12-5.359375 12-12v-12h48v12c0 6.640625 5.359375 12 12 12s12-5.359375 12-12v-12h48v12c0 6.640625 5.359375 12 12 12s12-5.359375 12-12v-12h48v12c0 6.640625 5.359375 12 12 12 6.558594 0 12-5.359375 12-12v-12zm0 0" fill="#f5f7fa"/><path d="m88 168c2.046875 0 4.097656-.785156 5.65625-2.34375l10.34375-10.34375 10.34375 10.34375c1.558594 1.558594 3.609375 2.34375 5.65625 2.34375s4.097656-.785156 5.65625-2.34375l10.34375-10.34375 10.34375 10.34375c1.558594 1.558594 3.609375 2.34375 5.65625 2.34375s4.097656-.785156 5.65625-2.34375l10.34375-10.34375 10.34375 10.34375c1.558594 1.558594 3.609375 2.34375 5.65625 2.34375s4.097656-.785156 5.65625-2.34375l10.34375-10.34375 10.34375 10.34375c1.558594 1.558594 3.609375 2.34375 5.65625 2.34375s4.097656-.785156 5.65625-2.34375l10.34375-10.34375 10.34375 10.34375c1.558594 1.558594 3.609375 2.34375 5.65625 2.34375s4.097656-.785156 5.65625-2.34375l10.34375-10.34375 10.34375 10.34375c1.558594 1.558594 3.609375 2.34375 5.65625 2.34375s4.097656-.785156 5.65625-2.34375c3.128906-3.128906 3.128906-8.183594 0-11.3125l-16-16c-3.128906-3.128906-8.183594-3.128906-11.3125 0l-10.34375 10.34375-10.34375-10.34375c-3.128906-3.128906-8.183594-3.128906-11.3125 0l-10.34375 10.34375-10.34375-10.34375c-3.128906-3.128906-8.183594-3.128906-11.3125 0l-10.34375 10.34375-10.34375-10.34375c-3.128906-3.128906-8.183594-3.128906-11.3125 0l-10.34375 10.34375-10.34375-10.34375c-3.128906-3.128906-8.183594-3.128906-11.3125 0l-10.34375 10.34375-10.34375-10.34375c-3.128906-3.128906-8.183594-3.128906-11.3125 0l-16 16c-3.128906 3.128906-3.128906 8.183594 0 11.3125 1.558594 1.558594 3.609375 2.34375 5.65625 2.34375zm0 0" fill="#5d9cec"/><path d="m269.65625 202.34375c-3.128906-3.128906-8.183594-3.128906-11.3125 0l-10.34375 10.34375-10.34375-10.34375c-3.128906-3.128906-8.183594-3.128906-11.3125 0l-10.34375 10.34375-10.34375-10.34375c-3.128906-3.128906-8.183594-3.128906-11.3125 0l-10.34375 10.34375-10.34375-10.34375c-3.128906-3.128906-8.183594-3.128906-11.3125 0l-10.34375 10.34375-10.34375-10.34375c-3.128906-3.128906-8.183594-3.128906-11.3125 0l-10.34375 10.34375-10.34375-10.34375c-3.128906-3.128906-8.183594-3.128906-11.3125 0l-16 16c-3.128906 3.128906-3.128906 8.183594 0 11.3125 1.558594 1.558594 3.609375 2.34375 5.65625 2.34375s4.097656-.785156 5.65625-2.34375l10.34375-10.34375 10.34375 10.34375c1.558594 1.558594 3.609375 2.34375 5.65625 2.34375s4.097656-.785156 5.65625-2.34375l10.34375-10.34375 10.34375 10.34375c1.558594 1.558594 3.609375 2.34375 5.65625 2.34375s4.097656-.785156 5.65625-2.34375l10.34375-10.34375 10.34375 10.34375c1.558594 1.558594 3.609375 2.34375 5.65625 2.34375s4.097656-.785156 5.65625-2.34375l10.34375-10.34375 10.34375 10.34375c1.558594 1.558594 3.609375 2.34375 5.65625 2.34375s4.097656-.785156 5.65625-2.34375l10.34375-10.34375 10.34375 10.34375c1.558594 1.558594 3.609375 2.34375 5.65625 2.34375s4.097656-.785156 5.65625-2.34375l10.34375-10.34375 10.34375 10.34375c1.558594 1.558594 3.609375 2.34375 5.65625 2.34375s4.097656-.785156 5.65625-2.34375c3.128906-3.128906 3.128906-8.183594 0-11.3125zm0 0" fill="#5d9cec"/><path d="m269.65625 266.34375c-3.128906-3.128906-8.183594-3.128906-11.3125 0l-10.34375 10.34375-10.34375-10.34375c-3.128906-3.128906-8.183594-3.128906-11.3125 0l-10.34375 10.34375-10.34375-10.34375c-3.128906-3.128906-8.183594-3.128906-11.3125 0l-10.34375 10.34375-10.34375-10.34375c-3.128906-3.128906-8.183594-3.128906-11.3125 0l-10.34375 10.34375-10.34375-10.34375c-3.128906-3.128906-8.183594-3.128906-11.3125 0l-10.34375 10.34375-10.34375-10.34375c-3.128906-3.128906-8.183594-3.128906-11.3125 0l-16 16c-3.128906 3.128906-3.128906 8.183594 0 11.3125 1.558594 1.558594 3.609375 2.34375 5.65625 2.34375s4.097656-.785156 5.65625-2.34375l10.34375-10.34375 10.34375 10.34375c1.558594 1.558594 3.609375 2.34375 5.65625 2.34375s4.097656-.785156 5.65625-2.34375l10.34375-10.34375 10.34375 10.34375c1.558594 1.558594 3.609375 2.34375 5.65625 2.34375s4.097656-.785156 5.65625-2.34375l10.34375-10.34375 10.34375 10.34375c1.558594 1.558594 3.609375 2.34375 5.65625 2.34375s4.097656-.785156 5.65625-2.34375l10.34375-10.34375 10.34375 10.34375c1.558594 1.558594 3.609375 2.34375 5.65625 2.34375s4.097656-.785156 5.65625-2.34375l10.34375-10.34375 10.34375 10.34375c1.558594 1.558594 3.609375 2.34375 5.65625 2.34375s4.097656-.785156 5.65625-2.34375l10.34375-10.34375 10.34375 10.34375c1.558594 1.558594 3.609375 2.34375 5.65625 2.34375s4.097656-.785156 5.65625-2.34375c3.128906-3.128906 3.128906-8.183594 0-11.3125zm0 0" fill="#5d9cec"/><path d="m173.65625 330.34375c-3.128906-3.128906-8.183594-3.128906-11.3125 0l-10.34375 10.34375-10.34375-10.34375c-3.128906-3.128906-8.183594-3.128906-11.3125 0l-10.34375 10.34375-10.34375-10.34375c-3.128906-3.128906-8.183594-3.128906-11.3125 0l-16 16c-3.128906 3.128906-3.128906 8.183594 0 11.3125 1.558594 1.558594 3.609375 2.34375 5.65625 2.34375s4.097656-.785156 5.65625-2.34375l10.34375-10.34375 10.34375 10.34375c1.558594 1.558594 3.609375 2.34375 5.65625 2.34375s4.097656-.785156 5.65625-2.34375l10.34375-10.34375 10.34375 10.34375c1.558594 1.558594 3.609375 2.34375 5.65625 2.34375s4.097656-.785156 5.65625-2.34375l10.34375-10.34375 10.34375 10.34375c1.558594 1.558594 3.609375 2.34375 5.65625 2.34375s4.097656-.785156 5.65625-2.34375c3.128906-3.128906 3.128906-8.183594 0-11.3125zm0 0" fill="#5d9cec"/><path d="m431.824219 116.023438h-8c-4.425781 0-8 3.578124-8 8 0 4.425781 3.574219 8 8 8h8c4.488281 0 8 3.511718 8 8v96c0 4.425781 3.574219 8 8 8 4.421875 0 8-3.574219 8-8v-96c0-13.230469-10.761719-24-24-24zm0 0" fill="#ffce54"/><path d="m431.824219 372v16l-16 24-16-24v-16zm0 0" fill="#ffce54"/><path d="m415.824219 100c-8.800781 0-16 7.128906-16 16v256h32v-256c0-8.871094-7.199219-16-16-16zm0 0" fill="#656d78"/><path d="m431.824219 188.023438h-32v16h32zm0 0" fill="#ffce54"/></svg>