<svg height="508pt" viewBox="0 -30 508.19983 508" width="508pt" xmlns="http://www.w3.org/2000/svg"><path d="m353 237.128906-73.167969 13.097656-42.753906-56.457031 44.042969-60.671875 96.160156 64.71875zm0 0" fill="#e6e9ed"/><path d="m392.800781 314.226562c4.878907 7.4375 10.558594 14.871094 16.878907 22 18.320312 26 80.800781 31.4375 91.191406 42 9.199218 9.511719 7.128906 26 7.128906 26v8c-11.128906 4.078126-67.769531 23.671876-125.449219 14.230469-64.160156-10.480469-196.320312-129.589843-221.039062-168.71875l2.488281-7.511719c38.71875-62 61.472656-72.210937 71.039062-77.203124 9.570313-4.988282 15.191407 2.632812 15.191407 2.632812 11.378906 82.089844 107.671875 53.527344 107.671875 53.527344 4.402344 18.488281 15.378906 55.601562 34.898437 85.042968zm0 0" fill="#fc6e51"/><path d="m508 412.226562v16.949219c-19.679688 6.722657-72.960938 22.082031-128 13.050781-65.519531-10.722656-190.238281-120.5625-226.40625-168l7.917969-16.488281c24.71875 39.128907 156.878906 158.238281 221.039062 168.71875 57.6875 9.441407 114.328125-10.152343 125.449219-14.230469zm0 0" fill="#e6e9ed"/><path d="m392.71875 198.5625c-2.589844 3.550781-7.703125 4.453125-11.351562 1.992188l-105.535157-71.066407c-3.648437-2.464843-4.503906-7.375-1.910156-10.925781l84.078125-115.082031c2.59375-3.5507815 7.703125-4.457031 11.351562-1.992188l105.527344 71.066407c3.648438 2.460937 4.503906 7.375 1.914063 10.925781zm0 0" fill="#656d78"/><path d="m377.121094 326.226562c-1.457032 0-2.855469-.800781-3.5625-2.175781-1.007813-1.96875-.222656-4.386719 1.746094-5.386719l15.679687-8c1.976563-.992187 4.382813-.222656 5.382813 1.746094 1.007812 1.96875.226562 4.382813-1.742188 5.382813l-15.679688 8c-.59375.289062-1.210937.433593-1.824218.433593zm0 0" fill="#e9573f"/><path d="m367.039062 310.625c-1.445312 0-2.847656-.792969-3.558593-2.167969-1.007813-1.96875-.222657-4.375 1.734375-5.390625l15.761718-8.089844c1.96875-.984374 4.382813-.222656 5.390626 1.738282 1.007812 1.964844.226562 4.375-1.734376 5.390625l-15.761718 8.089843c-.589844.285157-1.214844.429688-1.832032.429688zm0 0" fill="#e9573f"/><path d="m357.929688 294.539062c-1.449219 0-2.851563-.792968-3.554688-2.167968-1.015625-1.960938-.238281-4.378906 1.730469-5.386719l16.949219-8.71875c1.960937-1.007813 4.386718-.242187 5.386718 1.726563 1.015625 1.960937.238282 4.378906-1.730468 5.386718l-16.949219 8.71875c-.59375.296875-1.21875.441406-1.832031.441406zm0 0" fill="#e9573f"/><path d="m350.480469 277.585938c-1.457031 0-2.847657-.800782-3.558594-2.175782-1.011719-1.960937-.226563-4.375 1.742187-5.386718l17.359376-8.878907c1.945312-.992187 4.375-.222656 5.382812 1.746094 1.007812 1.964844.226562 4.375-1.742188 5.382813l-17.359374 8.878906c-.585938.289062-1.207032.433594-1.824219.433594zm0 0" fill="#e9573f"/><path d="m343.839844 260.226562c-1.449219 0-2.839844-.792968-3.550782-2.167968-1.015624-1.960938-.242187-4.378906 1.726563-5.386719l18.320313-9.4375c1.96875-1.015625 4.367187-.242187 5.382812 1.726563 1.015625 1.960937.242188 4.375-1.726562 5.382812l-18.320313 9.441406c-.59375.296875-1.214844.441406-1.832031.441406zm0 0" fill="#e9573f"/><g fill="#e6e9ed"><path d="m92 281.023438h-88c-2.207031 0-4-1.789063-4-4 0-2.207032 1.792969-4 4-4h88c2.207031 0 4 1.792968 4 4 0 2.210937-1.785156 4-4 4zm0 0"/><path d="m340 449.023438h-224c-2.207031 0-4-1.789063-4-4 0-2.207032 1.792969-4 4-4h224c2.207031 0 4 1.792968 4 4 0 2.210937-1.785156 4-4 4zm0 0"/><path d="m212 369.023438h-112c-2.207031 0-4-1.789063-4-4 0-2.207032 1.792969-4 4-4h112c2.207031 0 4 1.792968 4 4 0 2.210937-1.785156 4-4 4zm0 0"/><path d="m76 369.023438h-24c-2.207031 0-4-1.789063-4-4 0-2.207032 1.792969-4 4-4h24c2.207031 0 4 1.792968 4 4 0 2.210937-1.785156 4-4 4zm0 0"/><path d="m164 321.023438h-72c-2.207031 0-4-1.789063-4-4 0-2.207032 1.792969-4 4-4h72c2.207031 0 4 1.792968 4 4 0 2.210937-1.785156 4-4 4zm0 0"/><path d="m212 417.023438h-56c-2.207031 0-4-1.789063-4-4 0-2.207032 1.792969-4 4-4h56c2.207031 0 4 1.792968 4 4 0 2.210937-1.785156 4-4 4zm0 0"/><path d="m252 417.023438h-24c-2.207031 0-4-1.789063-4-4 0-2.207032 1.792969-4 4-4h24c2.207031 0 4 1.792968 4 4 0 2.210937-1.785156 4-4 4zm0 0"/></g><path d="m404 322.226562c-19.839844-39.695312-23.566406-85.5625-24.167969-100-.128906-3.023437-4-4-4-4h-15.230469s-4.433593 1.398438-4.007812 3.957032c.503906 3.035156 1.375 7.691406 2.765625 13.554687 4.402344 18.488281 13.921875 49.046875 33.441406 78.488281 4.878907 7.4375 10.558594 14.871094 16.878907 22zm0 0" fill="#656d78"/><path d="m364.609375 222.226562c0 2.207032-1.792969 4-4 4-2.210937 0-4-1.792968-4-4 0-2.210937 1.789063-4 4-4 2.207031 0 4 1.789063 4 4zm0 0" fill="#656d78"/><path d="m379.839844 222.226562c0 2.207032-1.789063 4-4 4-2.207032 0-4-1.792968-4-4 0-2.210937 1.792968-4 4-4 2.210937 0 4 1.789063 4 4zm0 0" fill="#656d78"/></svg>